<mxfile host="app.diagrams.net" agent="Mozilla/5.0 (Macintosh; Intel Mac OS X 10_15_7) AppleWebKit/537.36 (KHTML, like Gecko) Chrome/133.0.0.0 Safari/537.36" version="26.0.16">
  <diagram name="Page-1" id="sTQkT1uZI8RGpjkG4LNM">
    <mxGraphModel dx="346" dy="388" grid="1" gridSize="10" guides="1" tooltips="1" connect="1" arrows="1" fold="1" page="1" pageScale="1" pageWidth="850" pageHeight="1100" math="0" shadow="0">
      <root>
        <mxCell id="0" />
        <mxCell id="1" parent="0" />
        <mxCell id="wHxMC6mOwozgc8YIMTt_-1" value="&lt;font face=&quot;Times New Roman&quot;&gt;Original&lt;br&gt;Emotion&lt;/font&gt;" style="ellipse;whiteSpace=wrap;html=1;aspect=fixed;" vertex="1" parent="1">
          <mxGeometry x="385" y="163" width="80" height="80" as="geometry" />
        </mxCell>
        <mxCell id="wHxMC6mOwozgc8YIMTt_-2" value="&lt;font face=&quot;Times New Roman&quot;&gt;SER&lt;/font&gt;&lt;div&gt;&lt;font face=&quot;Times New Roman&quot;&gt;Prediction&lt;/font&gt;&lt;/div&gt;" style="ellipse;whiteSpace=wrap;html=1;aspect=fixed;" vertex="1" parent="1">
          <mxGeometry x="545" y="363" width="80" height="80" as="geometry" />
        </mxCell>
        <mxCell id="wHxMC6mOwozgc8YIMTt_-3" value="&lt;font face=&quot;Times New Roman&quot;&gt;FER&lt;/font&gt;&lt;div&gt;&lt;font face=&quot;Times New Roman&quot;&gt;Prediction&lt;/font&gt;&lt;/div&gt;" style="ellipse;whiteSpace=wrap;html=1;aspect=fixed;" vertex="1" parent="1">
          <mxGeometry x="225" y="363" width="80" height="80" as="geometry" />
        </mxCell>
        <mxCell id="wHxMC6mOwozgc8YIMTt_-4" value="" style="endArrow=classic;html=1;rounded=0;exitX=1;exitY=1;exitDx=0;exitDy=0;entryX=0.5;entryY=0;entryDx=0;entryDy=0;" edge="1" parent="1" source="wHxMC6mOwozgc8YIMTt_-1" target="wHxMC6mOwozgc8YIMTt_-2">
          <mxGeometry width="50" height="50" relative="1" as="geometry">
            <mxPoint x="535" y="243" as="sourcePoint" />
            <mxPoint x="585" y="193" as="targetPoint" />
          </mxGeometry>
        </mxCell>
        <mxCell id="wHxMC6mOwozgc8YIMTt_-5" value="" style="endArrow=classic;html=1;rounded=0;exitX=0;exitY=1;exitDx=0;exitDy=0;entryX=0.5;entryY=0;entryDx=0;entryDy=0;" edge="1" parent="1" source="wHxMC6mOwozgc8YIMTt_-1" target="wHxMC6mOwozgc8YIMTt_-3">
          <mxGeometry width="50" height="50" relative="1" as="geometry">
            <mxPoint x="485" y="243" as="sourcePoint" />
            <mxPoint x="535" y="193" as="targetPoint" />
          </mxGeometry>
        </mxCell>
        <mxCell id="wHxMC6mOwozgc8YIMTt_-6" value="" style="shape=table;startSize=0;container=1;collapsible=0;childLayout=tableLayout;fontSize=16;" vertex="1" parent="1">
          <mxGeometry x="225" y="100" width="400" height="40" as="geometry" />
        </mxCell>
        <mxCell id="wHxMC6mOwozgc8YIMTt_-7" value="" style="shape=tableRow;horizontal=0;startSize=0;swimlaneHead=0;swimlaneBody=0;strokeColor=inherit;top=0;left=0;bottom=0;right=0;collapsible=0;dropTarget=0;fillColor=none;points=[[0,0.5],[1,0.5]];portConstraint=eastwest;fontSize=16;" vertex="1" parent="wHxMC6mOwozgc8YIMTt_-6">
          <mxGeometry width="400" height="20" as="geometry" />
        </mxCell>
        <mxCell id="wHxMC6mOwozgc8YIMTt_-50" value="Neutral" style="shape=partialRectangle;html=1;whiteSpace=wrap;connectable=0;strokeColor=inherit;overflow=hidden;fillColor=default;top=0;left=0;bottom=1;right=0;pointerEvents=1;fontSize=12;fontFamily=Times New Roman;" vertex="1" parent="wHxMC6mOwozgc8YIMTt_-7">
          <mxGeometry width="57" height="20" as="geometry">
            <mxRectangle width="57" height="20" as="alternateBounds" />
          </mxGeometry>
        </mxCell>
        <mxCell id="wHxMC6mOwozgc8YIMTt_-9" value="Anger" style="shape=partialRectangle;html=1;whiteSpace=wrap;connectable=0;strokeColor=inherit;overflow=hidden;fillColor=default;top=0;left=0;bottom=1;right=0;pointerEvents=1;fontSize=12;fontFamily=Times New Roman;" vertex="1" parent="wHxMC6mOwozgc8YIMTt_-7">
          <mxGeometry x="57" width="57" height="20" as="geometry">
            <mxRectangle width="57" height="20" as="alternateBounds" />
          </mxGeometry>
        </mxCell>
        <mxCell id="wHxMC6mOwozgc8YIMTt_-10" value="Happiness" style="shape=partialRectangle;html=1;whiteSpace=wrap;connectable=0;strokeColor=inherit;overflow=hidden;fillColor=default;top=0;left=0;bottom=1;right=0;pointerEvents=1;fontSize=12;fontFamily=Times New Roman;" vertex="1" parent="wHxMC6mOwozgc8YIMTt_-7">
          <mxGeometry x="114" width="57" height="20" as="geometry">
            <mxRectangle width="57" height="20" as="alternateBounds" />
          </mxGeometry>
        </mxCell>
        <mxCell id="wHxMC6mOwozgc8YIMTt_-23" value="Sadness" style="shape=partialRectangle;html=1;whiteSpace=wrap;connectable=0;strokeColor=inherit;overflow=hidden;fillColor=default;top=0;left=0;bottom=1;right=0;pointerEvents=1;fontSize=12;fontFamily=Times New Roman;" vertex="1" parent="wHxMC6mOwozgc8YIMTt_-7">
          <mxGeometry x="171" width="58" height="20" as="geometry">
            <mxRectangle width="58" height="20" as="alternateBounds" />
          </mxGeometry>
        </mxCell>
        <mxCell id="wHxMC6mOwozgc8YIMTt_-21" value="Disgust" style="shape=partialRectangle;html=1;whiteSpace=wrap;connectable=0;strokeColor=inherit;overflow=hidden;fillColor=default;top=0;left=0;bottom=1;right=0;pointerEvents=1;fontSize=12;fontFamily=Times New Roman;" vertex="1" parent="wHxMC6mOwozgc8YIMTt_-7">
          <mxGeometry x="229" width="57" height="20" as="geometry">
            <mxRectangle width="57" height="20" as="alternateBounds" />
          </mxGeometry>
        </mxCell>
        <mxCell id="wHxMC6mOwozgc8YIMTt_-19" value="Fear" style="shape=partialRectangle;html=1;whiteSpace=wrap;connectable=0;strokeColor=inherit;overflow=hidden;fillColor=default;top=0;left=0;bottom=1;right=0;pointerEvents=1;fontSize=12;fontFamily=Times New Roman;" vertex="1" parent="wHxMC6mOwozgc8YIMTt_-7">
          <mxGeometry x="286" width="57" height="20" as="geometry">
            <mxRectangle width="57" height="20" as="alternateBounds" />
          </mxGeometry>
        </mxCell>
        <mxCell id="wHxMC6mOwozgc8YIMTt_-25" value="Surprise" style="shape=partialRectangle;html=1;whiteSpace=wrap;connectable=0;strokeColor=inherit;overflow=hidden;fillColor=default;top=0;left=0;bottom=1;right=0;pointerEvents=1;fontSize=12;fontFamily=Times New Roman;" vertex="1" parent="wHxMC6mOwozgc8YIMTt_-7">
          <mxGeometry x="343" width="57" height="20" as="geometry">
            <mxRectangle width="57" height="20" as="alternateBounds" />
          </mxGeometry>
        </mxCell>
        <mxCell id="wHxMC6mOwozgc8YIMTt_-11" value="" style="shape=tableRow;horizontal=0;startSize=0;swimlaneHead=0;swimlaneBody=0;strokeColor=inherit;top=0;left=0;bottom=0;right=0;collapsible=0;dropTarget=0;fillColor=none;points=[[0,0.5],[1,0.5]];portConstraint=eastwest;fontSize=16;" vertex="1" parent="wHxMC6mOwozgc8YIMTt_-6">
          <mxGeometry y="20" width="400" height="20" as="geometry" />
        </mxCell>
        <mxCell id="wHxMC6mOwozgc8YIMTt_-51" value="0.5" style="shape=partialRectangle;html=1;whiteSpace=wrap;connectable=0;strokeColor=inherit;overflow=hidden;fillColor=default;top=0;left=0;bottom=0;right=0;pointerEvents=1;fontSize=12;fontFamily=Times New Roman;" vertex="1" parent="wHxMC6mOwozgc8YIMTt_-11">
          <mxGeometry width="57" height="20" as="geometry">
            <mxRectangle width="57" height="20" as="alternateBounds" />
          </mxGeometry>
        </mxCell>
        <mxCell id="wHxMC6mOwozgc8YIMTt_-13" value="0.04" style="shape=partialRectangle;html=1;whiteSpace=wrap;connectable=0;strokeColor=inherit;overflow=hidden;fillColor=default;top=0;left=0;bottom=0;right=0;pointerEvents=1;fontSize=12;fontFamily=Times New Roman;" vertex="1" parent="wHxMC6mOwozgc8YIMTt_-11">
          <mxGeometry x="57" width="57" height="20" as="geometry">
            <mxRectangle width="57" height="20" as="alternateBounds" />
          </mxGeometry>
        </mxCell>
        <mxCell id="wHxMC6mOwozgc8YIMTt_-14" value="0.3" style="shape=partialRectangle;html=1;whiteSpace=wrap;connectable=0;strokeColor=inherit;overflow=hidden;fillColor=default;top=0;left=0;bottom=0;right=0;pointerEvents=1;fontSize=12;fontFamily=Times New Roman;" vertex="1" parent="wHxMC6mOwozgc8YIMTt_-11">
          <mxGeometry x="114" width="57" height="20" as="geometry">
            <mxRectangle width="57" height="20" as="alternateBounds" />
          </mxGeometry>
        </mxCell>
        <mxCell id="wHxMC6mOwozgc8YIMTt_-24" value="0.07" style="shape=partialRectangle;html=1;whiteSpace=wrap;connectable=0;strokeColor=inherit;overflow=hidden;fillColor=default;top=0;left=0;bottom=0;right=0;pointerEvents=1;fontSize=12;fontFamily=Times New Roman;" vertex="1" parent="wHxMC6mOwozgc8YIMTt_-11">
          <mxGeometry x="171" width="58" height="20" as="geometry">
            <mxRectangle width="58" height="20" as="alternateBounds" />
          </mxGeometry>
        </mxCell>
        <mxCell id="wHxMC6mOwozgc8YIMTt_-22" value="0.02" style="shape=partialRectangle;html=1;whiteSpace=wrap;connectable=0;strokeColor=inherit;overflow=hidden;fillColor=default;top=0;left=0;bottom=0;right=0;pointerEvents=1;fontSize=12;fontFamily=Times New Roman;" vertex="1" parent="wHxMC6mOwozgc8YIMTt_-11">
          <mxGeometry x="229" width="57" height="20" as="geometry">
            <mxRectangle width="57" height="20" as="alternateBounds" />
          </mxGeometry>
        </mxCell>
        <mxCell id="wHxMC6mOwozgc8YIMTt_-20" value="0.05" style="shape=partialRectangle;html=1;whiteSpace=wrap;connectable=0;strokeColor=inherit;overflow=hidden;fillColor=default;top=0;left=0;bottom=0;right=0;pointerEvents=1;fontSize=12;fontFamily=Times New Roman;" vertex="1" parent="wHxMC6mOwozgc8YIMTt_-11">
          <mxGeometry x="286" width="57" height="20" as="geometry">
            <mxRectangle width="57" height="20" as="alternateBounds" />
          </mxGeometry>
        </mxCell>
        <mxCell id="wHxMC6mOwozgc8YIMTt_-26" value="0.02" style="shape=partialRectangle;html=1;whiteSpace=wrap;connectable=0;strokeColor=inherit;overflow=hidden;fillColor=default;top=0;left=0;bottom=0;right=0;pointerEvents=1;fontSize=12;fontFamily=Times New Roman;" vertex="1" parent="wHxMC6mOwozgc8YIMTt_-11">
          <mxGeometry x="343" width="57" height="20" as="geometry">
            <mxRectangle width="57" height="20" as="alternateBounds" />
          </mxGeometry>
        </mxCell>
        <mxCell id="wHxMC6mOwozgc8YIMTt_-104" value="" style="shape=table;startSize=0;container=1;collapsible=0;childLayout=tableLayout;fontSize=16;" vertex="1" parent="1">
          <mxGeometry x="25" y="460" width="457" height="40" as="geometry" />
        </mxCell>
        <mxCell id="wHxMC6mOwozgc8YIMTt_-105" value="" style="shape=tableRow;horizontal=0;startSize=0;swimlaneHead=0;swimlaneBody=0;strokeColor=inherit;top=0;left=0;bottom=0;right=0;collapsible=0;dropTarget=0;fillColor=none;points=[[0,0.5],[1,0.5]];portConstraint=eastwest;fontSize=16;" vertex="1" parent="wHxMC6mOwozgc8YIMTt_-104">
          <mxGeometry width="457" height="20" as="geometry" />
        </mxCell>
        <mxCell id="wHxMC6mOwozgc8YIMTt_-123" style="shape=partialRectangle;html=1;whiteSpace=wrap;connectable=0;strokeColor=inherit;overflow=hidden;fillColor=default;top=0;left=0;bottom=1;right=1;pointerEvents=1;fontSize=12;fontFamily=Times New Roman;" vertex="1" parent="wHxMC6mOwozgc8YIMTt_-105">
          <mxGeometry width="57" height="20" as="geometry">
            <mxRectangle width="57" height="20" as="alternateBounds" />
          </mxGeometry>
        </mxCell>
        <mxCell id="wHxMC6mOwozgc8YIMTt_-106" value="Neutral" style="shape=partialRectangle;html=1;whiteSpace=wrap;connectable=0;strokeColor=inherit;overflow=hidden;fillColor=default;top=0;left=0;bottom=1;right=0;pointerEvents=1;fontSize=12;fontFamily=Times New Roman;" vertex="1" parent="wHxMC6mOwozgc8YIMTt_-105">
          <mxGeometry x="57" width="57" height="20" as="geometry">
            <mxRectangle width="57" height="20" as="alternateBounds" />
          </mxGeometry>
        </mxCell>
        <mxCell id="wHxMC6mOwozgc8YIMTt_-107" value="Anger" style="shape=partialRectangle;html=1;whiteSpace=wrap;connectable=0;strokeColor=inherit;overflow=hidden;fillColor=default;top=0;left=0;bottom=1;right=0;pointerEvents=1;fontSize=12;fontFamily=Times New Roman;" vertex="1" parent="wHxMC6mOwozgc8YIMTt_-105">
          <mxGeometry x="114" width="57" height="20" as="geometry">
            <mxRectangle width="57" height="20" as="alternateBounds" />
          </mxGeometry>
        </mxCell>
        <mxCell id="wHxMC6mOwozgc8YIMTt_-108" value="Happiness" style="shape=partialRectangle;html=1;whiteSpace=wrap;connectable=0;strokeColor=inherit;overflow=hidden;fillColor=default;top=0;left=0;bottom=1;right=0;pointerEvents=1;fontSize=12;fontFamily=Times New Roman;" vertex="1" parent="wHxMC6mOwozgc8YIMTt_-105">
          <mxGeometry x="171" width="57" height="20" as="geometry">
            <mxRectangle width="57" height="20" as="alternateBounds" />
          </mxGeometry>
        </mxCell>
        <mxCell id="wHxMC6mOwozgc8YIMTt_-109" value="Sadness" style="shape=partialRectangle;html=1;whiteSpace=wrap;connectable=0;strokeColor=inherit;overflow=hidden;fillColor=default;top=0;left=0;bottom=1;right=0;pointerEvents=1;fontSize=12;fontFamily=Times New Roman;" vertex="1" parent="wHxMC6mOwozgc8YIMTt_-105">
          <mxGeometry x="228" width="58" height="20" as="geometry">
            <mxRectangle width="58" height="20" as="alternateBounds" />
          </mxGeometry>
        </mxCell>
        <mxCell id="wHxMC6mOwozgc8YIMTt_-110" value="Disgust" style="shape=partialRectangle;html=1;whiteSpace=wrap;connectable=0;strokeColor=inherit;overflow=hidden;fillColor=default;top=0;left=0;bottom=1;right=0;pointerEvents=1;fontSize=12;fontFamily=Times New Roman;" vertex="1" parent="wHxMC6mOwozgc8YIMTt_-105">
          <mxGeometry x="286" width="57" height="20" as="geometry">
            <mxRectangle width="57" height="20" as="alternateBounds" />
          </mxGeometry>
        </mxCell>
        <mxCell id="wHxMC6mOwozgc8YIMTt_-111" value="Fear" style="shape=partialRectangle;html=1;whiteSpace=wrap;connectable=0;strokeColor=inherit;overflow=hidden;fillColor=default;top=0;left=0;bottom=1;right=0;pointerEvents=1;fontSize=12;fontFamily=Times New Roman;" vertex="1" parent="wHxMC6mOwozgc8YIMTt_-105">
          <mxGeometry x="343" width="57" height="20" as="geometry">
            <mxRectangle width="57" height="20" as="alternateBounds" />
          </mxGeometry>
        </mxCell>
        <mxCell id="wHxMC6mOwozgc8YIMTt_-112" value="Surprise" style="shape=partialRectangle;html=1;whiteSpace=wrap;connectable=0;strokeColor=inherit;overflow=hidden;fillColor=default;top=0;left=0;bottom=1;right=0;pointerEvents=1;fontSize=12;fontFamily=Times New Roman;" vertex="1" parent="wHxMC6mOwozgc8YIMTt_-105">
          <mxGeometry x="400" width="57" height="20" as="geometry">
            <mxRectangle width="57" height="20" as="alternateBounds" />
          </mxGeometry>
        </mxCell>
        <mxCell id="wHxMC6mOwozgc8YIMTt_-113" value="" style="shape=tableRow;horizontal=0;startSize=0;swimlaneHead=0;swimlaneBody=0;strokeColor=inherit;top=0;left=0;bottom=0;right=0;collapsible=0;dropTarget=0;fillColor=none;points=[[0,0.5],[1,0.5]];portConstraint=eastwest;fontSize=16;" vertex="1" parent="wHxMC6mOwozgc8YIMTt_-104">
          <mxGeometry y="20" width="457" height="20" as="geometry" />
        </mxCell>
        <mxCell id="wHxMC6mOwozgc8YIMTt_-124" value="Neutral" style="shape=partialRectangle;html=1;whiteSpace=wrap;connectable=0;strokeColor=inherit;overflow=hidden;fillColor=default;top=0;left=0;bottom=0;right=1;pointerEvents=1;fontSize=12;fontFamily=Times New Roman;" vertex="1" parent="wHxMC6mOwozgc8YIMTt_-113">
          <mxGeometry width="57" height="20" as="geometry">
            <mxRectangle width="57" height="20" as="alternateBounds" />
          </mxGeometry>
        </mxCell>
        <mxCell id="wHxMC6mOwozgc8YIMTt_-114" value="0.5" style="shape=partialRectangle;html=1;whiteSpace=wrap;connectable=0;strokeColor=inherit;overflow=hidden;fillColor=default;top=0;left=0;bottom=0;right=0;pointerEvents=1;fontSize=12;fontFamily=Times New Roman;" vertex="1" parent="wHxMC6mOwozgc8YIMTt_-113">
          <mxGeometry x="57" width="57" height="20" as="geometry">
            <mxRectangle width="57" height="20" as="alternateBounds" />
          </mxGeometry>
        </mxCell>
        <mxCell id="wHxMC6mOwozgc8YIMTt_-115" value="0.04" style="shape=partialRectangle;html=1;whiteSpace=wrap;connectable=0;strokeColor=inherit;overflow=hidden;fillColor=default;top=0;left=0;bottom=0;right=0;pointerEvents=1;fontSize=12;fontFamily=Times New Roman;" vertex="1" parent="wHxMC6mOwozgc8YIMTt_-113">
          <mxGeometry x="114" width="57" height="20" as="geometry">
            <mxRectangle width="57" height="20" as="alternateBounds" />
          </mxGeometry>
        </mxCell>
        <mxCell id="wHxMC6mOwozgc8YIMTt_-116" value="0.3" style="shape=partialRectangle;html=1;whiteSpace=wrap;connectable=0;strokeColor=inherit;overflow=hidden;fillColor=default;top=0;left=0;bottom=0;right=0;pointerEvents=1;fontSize=12;fontFamily=Times New Roman;" vertex="1" parent="wHxMC6mOwozgc8YIMTt_-113">
          <mxGeometry x="171" width="57" height="20" as="geometry">
            <mxRectangle width="57" height="20" as="alternateBounds" />
          </mxGeometry>
        </mxCell>
        <mxCell id="wHxMC6mOwozgc8YIMTt_-117" value="0.07" style="shape=partialRectangle;html=1;whiteSpace=wrap;connectable=0;strokeColor=inherit;overflow=hidden;fillColor=default;top=0;left=0;bottom=0;right=0;pointerEvents=1;fontSize=12;fontFamily=Times New Roman;" vertex="1" parent="wHxMC6mOwozgc8YIMTt_-113">
          <mxGeometry x="228" width="58" height="20" as="geometry">
            <mxRectangle width="58" height="20" as="alternateBounds" />
          </mxGeometry>
        </mxCell>
        <mxCell id="wHxMC6mOwozgc8YIMTt_-118" value="0.02" style="shape=partialRectangle;html=1;whiteSpace=wrap;connectable=0;strokeColor=inherit;overflow=hidden;fillColor=default;top=0;left=0;bottom=0;right=0;pointerEvents=1;fontSize=12;fontFamily=Times New Roman;" vertex="1" parent="wHxMC6mOwozgc8YIMTt_-113">
          <mxGeometry x="286" width="57" height="20" as="geometry">
            <mxRectangle width="57" height="20" as="alternateBounds" />
          </mxGeometry>
        </mxCell>
        <mxCell id="wHxMC6mOwozgc8YIMTt_-119" value="0.05" style="shape=partialRectangle;html=1;whiteSpace=wrap;connectable=0;strokeColor=inherit;overflow=hidden;fillColor=default;top=0;left=0;bottom=0;right=0;pointerEvents=1;fontSize=12;fontFamily=Times New Roman;" vertex="1" parent="wHxMC6mOwozgc8YIMTt_-113">
          <mxGeometry x="343" width="57" height="20" as="geometry">
            <mxRectangle width="57" height="20" as="alternateBounds" />
          </mxGeometry>
        </mxCell>
        <mxCell id="wHxMC6mOwozgc8YIMTt_-120" value="0.02" style="shape=partialRectangle;html=1;whiteSpace=wrap;connectable=0;strokeColor=inherit;overflow=hidden;fillColor=default;top=0;left=0;bottom=0;right=0;pointerEvents=1;fontSize=12;fontFamily=Times New Roman;" vertex="1" parent="wHxMC6mOwozgc8YIMTt_-113">
          <mxGeometry x="400" width="57" height="20" as="geometry">
            <mxRectangle width="57" height="20" as="alternateBounds" />
          </mxGeometry>
        </mxCell>
      </root>
    </mxGraphModel>
  </diagram>
</mxfile>
